<?xml version="1.0" encoding="utf-8"?>
<!-- Generator: Adobe Illustrator 26.3.0, SVG Export Plug-In . SVG Version: 6.00 Build 0)  -->
<svg version="1.1" id="Camada_1" xmlns="http://www.w3.org/2000/svg" xmlns:xlink="http://www.w3.org/1999/xlink" x="0px" y="0px"
	 viewBox="0 0 25 25" style="enable-background:new 0 0 25 25;" xml:space="preserve">
<style type="text/css">
	.st0{fill:#FFFFFF;}
</style>
<g>
	<path class="st0" d="M14.14,16.81c0.17,0,0.36-0.04,0.35,0.25c-0.01,0.68,0.01,1.36-0.02,2.03c-0.04,0.83-0.66,1.56-1.45,1.76
		c-0.85,0.22-1.69-0.12-2.17-0.86c-0.3-0.47-0.36-0.98-0.33-1.51c0.02-0.29-0.11-0.42-0.4-0.42c-0.53,0.01-1.05,0.01-1.58,0
		c-0.26,0-0.38,0.13-0.38,0.38c0.01,0.3,0,0.59,0.03,0.88c0.19,2.26,2.2,4.03,4.44,3.93c2.35-0.11,4.22-2.04,4.21-4.34
		c-0.01-1.04-0.01-2.08,0-3.12c0-0.85-0.48-1.34-1.34-1.34c-0.59,0-1.18,0-1.77,0c-0.22,0-0.39,0.17-0.39,0.39v1.57
		c0,0.21,0.17,0.39,0.39,0.39C13.87,16.81,14.01,16.81,14.14,16.81z"/>
	<path class="st0" d="M1.8,13.37c0.34,1.68,1.71,3.07,3.4,3.34c0.82,0.13,1.66,0.1,2.49,0.1c1.19,0.01,2.38,0.01,3.57,0.01
		c0.21,0,0.39-0.17,0.39-0.39v-1.57c0-0.21-0.17-0.39-0.39-0.39c-0.15,0-0.29,0-0.44,0c0,0,0,0,0,0c-1.58,0-3.16,0.01-4.74,0
		c-1.18-0.01-2.03-0.89-2.02-2.01c0.01-1.06,0.9-1.92,2.04-1.95c0.22-0.01,0.44-0.01,0.66,0c0.18,0.01,0.25-0.07,0.25-0.25
		C7.01,9.63,7.02,9,7,8.38C7,8.3,6.88,8.17,6.81,8.16C5.65,8.1,4.56,8.28,3.58,8.95C2.15,9.93,1.45,11.65,1.8,13.37z"/>
	<path class="st0" d="M18.88,10.51c1.15,0,2.02,0.84,2.05,1.92c0.03,1.1-0.77,1.96-1.93,2.04c-0.21,0.02-0.42,0.01-0.65,0.01
		c-0.2,0-0.36,0.16-0.36,0.35c0,0.62,0,1.21,0.01,1.79c0,0.07,0.12,0.18,0.2,0.19c1.08,0.05,2.12-0.09,3.06-0.69
		c1.51-0.97,2.29-2.69,1.96-4.43c-0.32-1.72-1.66-3.1-3.4-3.41c-0.68-0.12-1.4-0.1-2.1-0.1c-1.34-0.01-2.68-0.01-4.02-0.01
		c-0.2,0-0.35,0.16-0.35,0.35v1.61c0,0.2,0.16,0.35,0.36,0.35C15.43,10.5,17.15,10.51,18.88,10.51z"/>
	<path class="st0" d="M10.84,8.19c-0.25,0-0.35-0.07-0.35-0.33c0.02-0.64-0.01-1.29,0.02-1.93c0.05-0.87,0.65-1.59,1.45-1.79
		c0.88-0.22,1.72,0.13,2.21,0.91c0.29,0.46,0.32,0.97,0.3,1.49c-0.01,0.26,0.1,0.38,0.37,0.38c0.53-0.01,1.05-0.01,1.58,0
		c0.3,0.01,0.41-0.14,0.4-0.42c-0.01-0.23,0-0.46-0.01-0.69c-0.07-1.71-1.35-3.36-2.99-3.86c-2.84-0.87-5.64,1.19-5.66,4.16
		C8.16,7.03,8.19,7.98,8.15,8.91c-0.05,1.11,0.49,1.62,1.62,1.61c0.5-0.01,1-0.01,1.5-0.02c0.22,0,0.39-0.18,0.39-0.39V8.58
		c0-0.22-0.18-0.39-0.39-0.39C11.12,8.19,10.98,8.19,10.84,8.19z"/>
</g>
</svg>
